<?xml version="1.0" standalone="no"?>
<!DOCTYPE svg PUBLIC "-//W3C//DTD SVG 20010904//EN"
 "http://www.w3.org/TR/2001/REC-SVG-20010904/DTD/svg10.dtd">
<svg version="1.0" xmlns="http://www.w3.org/2000/svg"
 width="130.000000pt" height="130.000000pt" viewBox="0 0 130.000000 130.000000"
 preserveAspectRatio="xMidYMid meet">

<g transform="translate(0.000000,130.000000) scale(0.100000,-0.100000)"
fill="#000000" stroke="none">
<path d="M0 650 l0 -650 650 0 650 0 0 650 0 650 -650 0 -650 0 0 -650z m900
553 c0 -26 -79 -317 -122 -451 l-20 -62 -266 2 -267 3 -3 24 c-5 29 127 493
142 503 6 4 129 8 274 8 l262 0 0 -27z m313 -256 c-3 -42 -57 -235 -70 -247
-4 -4 -65 -10 -134 -13 -178 -9 -173 -14 -131 149 18 70 38 134 44 141 8 10
44 13 152 11 l141 -3 -2 -38z m-746 -373 c6 -17 0 -48 -40 -194 l-23 -85 -152
-3 c-140 -2 -152 -1 -152 15 0 29 67 252 80 268 10 12 41 15 147 15 113 0 135
-2 140 -16z m632 7 c12 -8 7 -38 -33 -183 -27 -95 -57 -207 -68 -248 -32 -122
0 -110 -302 -110 -216 0 -266 3 -275 14 -10 11 3 67 59 262 39 137 76 254 82
261 8 10 71 13 267 13 141 0 262 -4 270 -9z"/>
</g>
</svg>
